# xmcd
#
# Track frame offsets: 
#        150
#        19814
#        38263
#        61220
#        77078
#        96844
#        113387
#        135324
#        155421
#        178233
#        192130
#        207650
#        223265
#        240084
#        261773
#        279513
#        295121
#        320527
#
# Disc length: 4512 seconds
#
# Revision: 0
# Processed by: cddbd v1.5.2PL0 Copyright (c) Steve Scherf et al.
# Submitted via: ExactAudioCopy v0.99pb1
#
DISCID=f4119e12
DTITLE=Валерий Дайнеко - Буду Помнить
DYEAR=2002
DGENRE=Fusion
TTITLE0=Буду Помнить
TTITLE1=Я Схожу По Тебе С Ума
TTITLE2=Телеграммы
TTITLE3=Прости
TTITLE4=Письмо
TTITLE5=Только Позови
TTITLE6=Мама
TTITLE7=Погоди
TTITLE8=Ария Грэя
TTITLE9=Всё Просто
TTITLE10=Банальный Сюжет
TTITLE11=Кто Бы Мог Подумать
TTITLE12=Рука В Руке
TTITLE13=Зачарованная Моя
TTITLE14=Sweet Freedom
TTITLE15=Giant Steps
TTITLE16=Fly Mу To The Moon
TTITLE17=Beyond The Sea
EXTD=
EXTT0=
EXTT1=
EXTT2=
EXTT3=
EXTT4=
EXTT5=
EXTT6=
EXTT7=
EXTT8=
EXTT9=
EXTT10=
EXTT11=
EXTT12=
EXTT13=
EXTT14=
EXTT15=
EXTT16=
EXTT17=
PLAYORDER=
